<svg width="378" height="378" xmlns="http://www.w3.org/2000/svg" xmlns:xlink="http://www.w3.org/1999/xlink" xml:space="preserve" overflow="hidden"><g transform="translate(-1403 -568)"><path d="M1592 662.131C1539.69 662.131 1497.13 704.689 1497.13 757 1497.13 777.867 1503.91 797.177 1515.37 812.858 1524.71 806.13 1535.98 802.404 1547.7 802.404L1636.29 802.404C1648.02 802.404 1659.29 806.13 1668.63 812.861 1680.09 797.179 1686.87 777.868 1686.87 757 1686.87 704.689 1644.31 662.131 1592 662.131ZM1592 780.256C1565.54 780.256 1544.01 758.728 1544.01 732.268 1544.01 705.807 1565.54 684.279 1592 684.279 1618.46 684.279 1639.99 705.807 1639.99 732.268 1639.99 758.728 1618.46 780.256 1592 780.256Z" fill="#FFFFFF"/><path d="M1592 706.428C1577.75 706.428 1566.16 718.019 1566.16 732.268 1566.16 746.516 1577.75 758.107 1592 758.107 1606.25 758.107 1617.84 746.516 1617.84 732.268 1617.84 718.019 1606.25 706.428 1592 706.428Z" fill="#FFFFFF"/><path d="M1547.7 824.553C1541.62 824.553 1535.74 826.221 1530.63 829.285 1547.19 843.361 1568.62 851.869 1592 851.869 1615.38 851.869 1636.81 843.362 1653.36 829.287 1648.26 826.223 1642.37 824.553 1636.29 824.553L1547.7 824.553Z" fill="#FFFFFF"/><path d="M1781 795.61 1781 718.39 1746.81 711.552C1743.56 700.475 1739.14 689.798 1733.6 679.672L1752.95 650.658 1698.34 596.055 1669.33 615.398C1659.2 609.858 1648.53 605.435 1637.45 602.19L1630.61 568 1553.39 568 1546.55 602.191C1535.47 605.436 1524.8 609.858 1514.67 615.398L1485.66 596.055 1431.05 650.658 1450.4 679.672C1444.86 689.798 1440.44 700.474 1437.19 711.552L1403 718.39 1403 795.61 1437.19 802.448C1440.44 813.526 1444.86 824.202 1450.4 834.328L1431.05 863.342 1485.66 917.945 1514.67 898.602C1524.8 904.142 1535.47 908.565 1546.55 911.809L1553.39 946 1630.61 946 1637.45 911.809C1648.53 908.565 1659.2 904.142 1669.33 898.602L1698.34 917.945 1752.95 863.342 1733.6 834.328C1739.14 824.203 1743.57 813.526 1746.81 802.449L1781 795.61ZM1592 874.018C1527.48 874.018 1474.98 821.524 1474.98 757 1474.98 692.476 1527.48 639.982 1592 639.982 1656.52 639.982 1709.02 692.476 1709.02 757 1709.02 821.524 1656.52 874.018 1592 874.018Z" fill="#FFFFFF"/></g></svg>