<svg width="378" height="378" xmlns="http://www.w3.org/2000/svg" xmlns:xlink="http://www.w3.org/1999/xlink" xml:space="preserve" overflow="hidden"><g transform="translate(-451 -731)"><path d="M764.814 1062.57 737.469 1062.57 737.469 1041.36 542.531 1041.36 542.531 1062.57 515.186 1062.57C509.053 1062.57 504.081 1067.53 504.081 1073.65 504.081 1079.76 509.053 1084.72 515.186 1084.72L764.814 1084.72C770.947 1084.72 775.919 1079.76 775.919 1073.65 775.919 1067.53 770.947 1062.57 764.814 1062.57Z" fill="#FFFFFF"/><path d="M699.923 824.371 581.684 824.371C555.521 824.371 534.234 845.657 534.234 871.821L534.234 873.428C534.234 899.592 555.52 920.879 581.684 920.879L585.71 920.879C597.535 920.879 610.197 919.371 623.347 916.399 633.944 913.988 646.573 913.726 658.224 916.399 671.374 919.371 684.036 920.879 695.861 920.879L699.923 920.879C726.087 920.879 747.373 899.592 747.373 873.428L747.373 871.821C747.373 845.657 726.087 824.371 699.923 824.371ZM607.991 883.044 595.47 883.044 595.47 894.91C595.47 901.025 590.512 905.984 584.396 905.984 578.28 905.984 573.321 901.025 573.321 894.91L573.321 883.044 560.069 883.044C553.953 883.044 548.995 878.086 548.995 871.97 548.995 865.854 553.953 860.895 560.069 860.895L573.321 860.895 573.321 849.031C573.321 842.915 578.28 837.956 584.396 837.956 590.512 837.956 595.47 842.915 595.47 849.031L595.47 860.895 607.991 860.895C614.107 860.895 619.065 865.854 619.065 871.97 619.065 878.086 614.107 883.044 607.991 883.044ZM669.265 883.044C663.149 883.044 658.191 878.086 658.191 871.97 658.191 865.854 663.149 860.895 669.265 860.895 675.381 860.895 680.339 865.854 680.339 871.97 680.339 878.086 675.381 883.044 669.265 883.044ZM694.353 908.133C688.237 908.133 683.279 903.175 683.279 897.059 683.279 890.943 688.237 885.984 694.353 885.984 700.469 885.984 705.427 890.943 705.427 897.059 705.427 903.175 700.469 908.133 694.353 908.133ZM694.354 857.955C688.238 857.955 683.28 852.997 683.28 846.881 683.28 840.765 688.238 835.806 694.354 835.806 700.47 835.806 705.428 840.765 705.428 846.881 705.428 852.997 700.47 857.955 694.354 857.955ZM719.443 883.044C713.327 883.044 708.369 878.086 708.369 871.97 708.369 865.854 713.327 860.895 719.443 860.895 725.559 860.895 730.517 865.854 730.517 871.97 730.517 878.086 725.559 883.044 719.443 883.044Z" fill="#FFFFFF"/><path d="M818.28 755.28 461.72 755.28C455.8 755.28 451 760.065 451 765.969L451 1005.66C451 1011.56 455.8 1016.35 461.72 1016.35L818.28 1016.35C824.2 1016.35 829 1011.56 829 1005.66L829 765.969C829 760.065 824.2 755.28 818.28 755.28ZM650.941 983.672C650.318 988.608 646.321 992.594 641.372 993.216 634.107 994.129 627.998 988.037 628.914 980.793 629.538 975.857 633.535 971.872 638.484 971.25 645.748 970.338 651.856 976.428 650.941 983.672ZM769.521 873.429C769.521 911.805 738.299 943.028 699.923 943.028L695.86 943.028C682.395 943.028 668.089 941.337 653.339 938.002 645.156 936.152 636.413 936.152 628.231 938.002 613.481 941.337 599.175 943.028 585.71 943.028L581.683 943.028C543.307 943.028 512.085 911.806 512.085 873.429L512.085 871.822C512.085 833.445 543.307 802.223 581.683 802.223L699.922 802.223C738.298 802.223 769.52 833.445 769.52 871.822L769.52 873.429Z" fill="#FFFFFF"/></g></svg>