<svg width="378" height="378" xmlns="http://www.w3.org/2000/svg" xmlns:xlink="http://www.w3.org/1999/xlink" xml:space="preserve" overflow="hidden"><g transform="translate(-1327 -72)"><path d="M1361.61 215.746 1414.85 215.746 1414.85 450 1361.61 450Z" fill="#FFFFFF"/><path d="M1553.27 300.93 1553.27 247.69 1446.79 296.091 1446.79 450 1670.39 450 1670.39 247.69 1553.27 300.93ZM1510.68 402.085 1478.73 402.085 1478.73 370.141 1510.68 370.141 1510.68 402.085ZM1574.56 402.085 1542.62 402.085 1542.62 370.141 1574.56 370.141 1574.56 402.085ZM1638.45 402.085 1606.51 402.085 1606.51 370.141 1638.45 370.141 1638.45 402.085Z" fill="#FFFFFF"/><path d="M1665.07 103.944C1652.34 103.944 1646.71 99.1193 1638.2 91.8169 1627.9 82.9878 1615.08 72 1590.53 72 1565.99 72 1553.17 82.9878 1542.87 91.8169 1534.35 99.1193 1528.72 103.944 1515.99 103.944 1503.27 103.944 1497.64 99.1193 1489.12 91.8169 1478.82 82.9886 1466 72.0007 1441.46 72 1403.3 72 1372.25 103.048 1372.25 141.212L1372.25 183.803 1404.2 183.803 1404.2 141.212C1404.2 120.662 1420.92 103.944 1441.46 103.944 1454.19 103.945 1459.82 108.769 1468.33 116.071 1478.63 124.9 1491.45 135.888 1516 135.888 1540.54 135.888 1553.36 124.9 1563.66 116.071 1572.18 108.769 1577.81 103.944 1590.53 103.944 1603.26 103.944 1608.89 108.769 1617.41 116.071 1627.71 124.9 1640.53 135.888 1665.07 135.888L1670.39 135.888 1670.39 103.944 1665.07 103.944Z" fill="#FFFFFF"/></g></svg>