<svg width="378" height="378" xmlns="http://www.w3.org/2000/svg" xmlns:xlink="http://www.w3.org/1999/xlink" xml:space="preserve" overflow="hidden"><g transform="translate(283 -720)"><path d="M-258.348 835.043C-271.938 835.043-283 846.093-283 859.695L-283 958.304C-283 971.906-271.938 982.956-258.348 982.956-244.758 982.956-233.696 971.906-233.696 958.304L-233.696 859.695C-233.695 846.093-244.758 835.043-258.348 835.043Z" fill="#FFFFFF"/><path d="M70.3481 761.087C56.7459 761.087 45.6961 772.137 45.6961 785.739L45.6961 1032.26C45.6961 1045.86 56.7459 1056.91 70.3481 1056.91 83.9501 1056.91 95 1045.86 95 1032.26L95 785.74C95 772.137 83.9501 761.087 70.3481 761.087Z" fill="#FFFFFF"/><path d="M-209.043 855.466-209.043 962.534-184.391 969.93-184.391 991.744C-184.391 1008.19-173.799 1022.41-158.03 1027.13L-84.0738 1049.33C-73.1465 1052.67-61.066 1050.79-51.3812 1043.58-42.022 1036.62-36.64 1025.94-36.5226 1014.29L21.0427 1029.09 21.0427 788.905-209.043 855.466ZM-61.1302 1013.92C-61.1302 1021.91-68.7353 1028.12-76.9959 1025.74L-150.952 1003.54C-156.201 1001.95-159.74 997.208-159.74 991.743L-159.74 977.323-61.131 1006.91-61.131 1013.92Z" fill="#FFFFFF"/></g></svg>