<svg width="378" height="378" xmlns="http://www.w3.org/2000/svg" xmlns:xlink="http://www.w3.org/1999/xlink" xml:space="preserve" overflow="hidden"><g transform="translate(257 -279)"><path d="M-68 516.668C-75.8057 516.668-83.4414 515.21-90.699 512.336L-185.52 474.747C-185.52 495.689-185.52 527.006-185.52 535.352-185.52 564.764-132.903 588.601-68 588.601-3.09741 588.601 49.5203 564.764 49.5203 535.352L49.5203 474.745-45.301 512.336C-52.5586 515.21-60.1943 516.668-68 516.668Z" fill="#FFFFFF"/><path d="M114.555 413.345-51.7461 347.426C-62.179 343.286-73.821 343.286-84.2539 347.426L-250.555 413.345C-254.449 414.885-257 418.645-257 422.825-257 427.008-254.449 430.765-250.555 432.307L-227.289 441.534-227.289 507.543C-232.449 511.068-235.851 517.006-235.851 523.736-235.851 529.901-232.997 535.399-228.555 538.99L-235.643 573.024C-236.588 577.59-235.435 582.343-232.487 585.961-229.538 589.58-225.135 591.68-220.466 591.68L-212.056 591.68C-207.388 591.68-202.984 589.58-200.035 585.961-197.087 582.343-195.934 577.59-196.879 573.024L-203.985 538.99C-199.525 535.399-196.671 529.899-196.671 523.736-196.671 517.004-200.073 511.068-205.233 507.543L-205.233 450.27-84.8022 498.019C-74.0103 502.296-61.9897 502.296-51.198 498.019L114.555 432.307C118.448 430.767 121 427.008 121 422.825 121 418.645 118.448 414.885 114.555 413.345Z" fill="#FFFFFF"/></g></svg>