<svg width="378" height="378" xmlns="http://www.w3.org/2000/svg" xmlns:xlink="http://www.w3.org/1999/xlink" xml:space="preserve" overflow="hidden"><g transform="translate(280 -47)"><path d="M-131.162 63.4194C-147.582 86.0994-159.985 122.836-166.246 168.078L-254.721 168.078C-232.986 115.985-187.154 76.4131-131.162 63.4194Z" fill="#FFFFFF"/><path d="M-33.7094 168.078-148.291 168.078C-139.667 110.551-121.004 70.625-101.986 59.1669-98.3237 58.9306-94.6619 58.8125-91 58.8125-87.3381 58.8125-83.6762 58.9306-80.0144 59.1669-60.9962 70.625-42.3325 110.551-33.7094 168.078Z" fill="#FFFFFF"/><path d="M72.7213 168.078-15.7544 168.078C-22.015 122.836-34.4181 86.0994-50.8375 63.4194 5.15375 76.4131 50.9863 115.985 72.7213 168.078Z" fill="#FFFFFF"/><path d="M-169.317 274.391-264.053 274.391C-266.77 261.987-268.188 249.23-268.188 236-268.188 218.518-265.707 201.744-260.864 185.797L-168.254 185.797C-169.908 201.744-170.734 218.518-170.734 236-170.734 249.23-170.262 262.106-169.317 274.391Z" fill="#FFFFFF"/><path d="M-131.162 408.581C-191.288 394.642-239.719 349.991-258.973 292.109L-167.662 292.109C-162.11 342.667-148.998 383.893-131.161 408.581Z" fill="#FFFFFF"/><path d="M-30.4019 274.391-151.598 274.391C-152.543 262.106-153.016 249.348-153.016 236-153.016 218.281-152.071 201.507-150.417 185.797L-31.5819 185.797C-29.9282 201.507-28.9832 218.281-28.9832 236-28.9832 249.348-29.4557 262.106-30.4007 274.391Z" fill="#FFFFFF"/><path d="M-32.1738 292.109C-39.7337 355.897-59.6969 400.666-80.0144 412.833-83.6762 413.069-87.3381 413.188-91 413.188-94.6619 413.188-98.3237 413.069-101.986 412.833-122.303 400.666-142.266 355.897-149.826 292.109Z" fill="#FFFFFF"/><path d="M76.9738 292.109C57.7206 349.991 9.28812 394.642-50.8363 408.581-33.0006 383.893-19.8876 342.667-14.3357 292.109L76.9749 292.109Z" fill="#FFFFFF"/><path d="M86.1875 236C86.1875 249.23 84.77 261.987 82.0531 274.391L-12.6831 274.391C-11.7381 262.106-11.2656 249.23-11.2656 236-11.2656 218.518-12.0925 201.744-13.7462 185.797L78.8637 185.797C83.7069 201.744 86.1875 218.518 86.1875 236Z" fill="#FFFFFF"/></g></svg>