<?xml version="1.0" encoding="utf-8"?>
<!-- Generator: Adobe Illustrator 25.3.1, SVG Export Plug-In . SVG Version: 6.00 Build 0)  -->
<svg version="1.1" id="Layer_1" xmlns="http://www.w3.org/2000/svg" xmlns:xlink="http://www.w3.org/1999/xlink" x="0px" y="0px"
	 viewBox="0 0 1000 320" style="enable-background:new 0 0 1000 320;" xml:space="preserve">
<style type="text/css">
	.st0{fill:#FFFFFF;}
	.st1{fill:#4F0303;}
</style>
<g>
	<path d="M170.42,66.84c0,0,8.08,6.64,18.65,3.88s18.8-8.11,18.8-8.11s-1.58,11.71,0.4,18.5c1.99,6.79,8.5,27.52,21.95,31.23
		c0,0,38.29-26.9,83.23-31.26c44.95-4.35,76.14,3.34,98.82,24.3c22.68,20.97,10.95,55.46,9.2,64.37s7.55,21.7,16.61,22.51
		c0,0-7.48-15.76-3.37-23.21s11.45-24.88,9.58-32c0,0,6.1,8.43,7.96,21.13c1.87,12.71,10.16,30.23,27.67,27.24
		c0,0-12.98-14.65-11.33-21.05c1.64-6.4,6.92-31.99-1.95-44.45s-39.52-20.06-46.63-26.69c-7.11-6.63-20.51-27.66-28.17-33.97
		S372.13,40,335.13,28.65s-87.13-6.5-107.9,1.9S180.54,53.49,170.42,66.84z"/>
	<path class="st0" d="M434.23,188.79c-2.32-1.22-4.61-3.23-6.57-5.84c-3.19-4.25-4.73-9.14-4.01-12.76
		c0.18-0.92,0.49-2.18,0.84-3.65c3.13-12.93,10.47-43.2-10.71-62.78c-19.24-17.78-43.86-26.07-77.47-26.07
		c-7.2,0-14.96,0.4-23.07,1.18c-23.54,2.28-45.19,10.76-59.21,17.47c-12.69,6.07-21.41,11.71-24.16,13.56
		c-7.83-2.79-14.71-13.17-19.46-29.41c-1.83-6.25-0.35-17.46-0.33-17.58l0.64-4.79l-4.05,2.63c-0.08,0.05-8.08,5.2-18.15,7.82
		c-1.52,0.4-3.08,0.6-4.64,0.6c-4.45,0-8.12-1.64-10.19-2.83c10.7-12.42,34.62-25.74,54.38-33.73c12.62-5.1,34.91-8.4,56.79-8.4
		c18.46,0,35.62,2.27,49.63,6.56c32.51,9.97,45.48,21.18,53.23,27.89c0.97,0.84,1.88,1.63,2.74,2.33
		c3.93,3.24,9.64,10.81,15.16,18.12c4.88,6.47,9.49,12.58,12.91,15.76c3.07,2.86,9.56,5.65,17.09,8.88
		c10.79,4.63,24.21,10.39,29.25,17.47c9.11,12.81,1.91,41.4,1.6,42.61c-0.86,3.35,0.9,8.16,5.37,14.72
		c1.27,1.87,2.57,3.59,3.67,4.98c-13.67-0.44-19.65-16.27-21.03-25.67c-1.92-13.09-8.1-21.75-8.36-22.11l-6.97-9.63l3.02,11.49
		c1.48,5.62-4.47,21.47-9.38,30.36C429.55,173.81,432.16,183.2,434.23,188.79 M438.08,192.27c0,0-7.48-15.76-3.37-23.21
		c4.11-7.44,11.45-24.88,9.58-32c0,0,6.1,8.43,7.96,21.14c1.72,11.73,8.93,27.57,23.81,27.58c1.23,0,2.52-0.11,3.86-0.34
		c0,0-12.98-14.65-11.33-21.05c1.64-6.4,6.92-31.99-1.95-44.45c-8.87-12.46-39.52-20.06-46.63-26.69
		c-7.11-6.63-20.51-27.66-28.17-33.97c-7.66-6.31-19.72-19.28-56.72-30.63c-15.5-4.75-33.3-6.66-50.28-6.66
		c-23.57,0-45.55,3.68-57.62,8.56c-20.77,8.4-46.68,22.94-56.81,36.29c0,0,5.54,4.55,13.45,4.55c1.64,0,3.38-0.2,5.2-0.67
		c10.57-2.75,18.8-8.11,18.8-8.11s-1.58,11.71,0.4,18.5c1.99,6.79,8.5,27.52,21.95,31.23c0,0,38.29-26.9,83.23-31.26
		c8.05-0.78,15.66-1.17,22.86-1.17c32.99,0,57.34,8.27,75.96,25.48c22.68,20.97,10.95,55.46,9.2,64.37
		C419.72,178.68,429.02,191.46,438.08,192.27L438.08,192.27z"/>
	<path class="st0" d="M212.63,55.18c0,0,23.19-37.54,87.6-41.26s89.39,33.81,90.6,36.27c0,0-14.25-11.38-26.07-16.51
		s-42.11-12.11-56.41-11.59C294.05,22.61,243.61,26.34,212.63,55.18z"/>
	<path d="M168.88,63.94c0,0,24.53-27.18,44.43-34.28s17.4-20.13,17.4-20.13s-12.54,12.43-26.97,12.61
		C189.32,22.34,163.07,23.71,168.88,63.94z"/>
	<path class="st0" d="M170.53,58.95c-0.99-11.45,0.93-20.08,5.73-25.7c7.37-8.62,20.48-8.79,27.52-8.88
		c10.06-0.13,19.09-5.7,24.18-9.58c-1.29,3.82-5.01,9.08-15.39,12.79C196.51,33.3,177.96,51.26,170.53,58.95 M168.88,63.94
		c0,0,24.53-27.18,44.43-34.28c19.9-7.1,17.4-20.13,17.4-20.13s-12.54,12.43-26.97,12.61C189.32,22.34,163.07,23.71,168.88,63.94
		L168.88,63.94z"/>
	<path d="M146.08,121.11c-0.72,6.17-0.85,12.7-0.04,19.34c0,0-0.08,11.37,15.43,13.6c10.53,1.51,23.53-4.28,34.29-11.18
		c2.72,0.28,11.28,0.7,22.25-3.05c12.37-4.23,28.57-12.46,30.93-13.67c3.8,0.82,8.28,1.23,13.52,0.89
		c22.7-1.49,11.16-20.25,47.56-11.29c0,0-1.88-16.83-28.05-15.92c-26.17,0.91-33.27,4.88-33.27,4.88l-17.46,11.32
		c0,0,3.04,4.45,10.31,7.73c-5.36,3.4-24.01,14.48-35.41,11.65c1.01-0.81,1.97-1.61,2.86-2.38c11.18-9.65,4.31-21.13,4.31-21.13
		s-9.01-16.1-9.88-25.18c-0.41-4.22-1.39-14.48-1.39-14.48s-11.9,3.93-15.05,4.85c-7.64,2.25-24.03-2.43-28.1,4.61
		c-2.3,3.97-7.13,13.62-10.31,26.09c-1.41-3.33-2.32-8.75-2.23-17.34c0.05-4.33,0.39-8.54,0.85-12.33
		c1.13-9.33,4.71-18.2,10.3-25.75l7.93-10.7c0,0-9.7,3.53-20.33,22.19C135.4,80.87,144.42,115.18,146.08,121.11z"/>
	<path class="st0" d="M168.51,39.36l-10.13,13.67c-5.5,7.42-8.99,16.15-10.09,25.22c-0.52,4.25-0.8,8.36-0.84,12.21
		c-0.06,5.49,0.3,9.97,1.06,13.38c3.6-12.3,8.41-20.95,9.42-22.69c2.9-5.01,10.62-4.79,18.08-4.57c4.12,0.12,8.01,0.23,10.67-0.55
		c3.09-0.91,14.9-4.8,15.01-4.84l1.32-0.43l1.52,15.86c0.84,8.74,9.65,24.59,9.74,24.75c0.06,0.09,7.2,12.36-4.55,22.51
		c-0.32,0.27-0.65,0.55-0.99,0.84c9.99,0.81,24.22-7,30.52-10.83c-6.16-3.22-8.81-7.04-8.93-7.22l-0.64-0.94l18.48-11.97
		c0.3-0.17,7.63-4.11,33.77-5.02c13.94-0.49,21.13,4.07,24.7,7.98c3.94,4.31,4.47,8.74,4.5,8.93l0.18,1.58l-1.54-0.38
		c-21.08-5.19-25.37-1.07-30.34,3.7c-3.42,3.28-7.29,6.99-16.88,7.62c-4.75,0.31-9.27,0.03-13.44-0.83
		c-3.04,1.55-18.75,9.46-30.72,13.55c-10.57,3.62-18.89,3.44-22.33,3.14c-9.51,6.05-23.14,12.81-34.72,11.14
		c-15.52-2.23-16.34-13.47-16.38-14.61c-0.75-6.16-0.74-12.66,0.02-19.34c-2-7.15-10.58-40.77-0.83-57.89
		c10.71-18.8,20.5-22.54,20.91-22.68L168.51,39.36z M148.83,111.25l-1.28-3.03c-1.62-3.84-2.41-9.82-2.32-17.79
		c0.04-3.93,0.33-8.12,0.86-12.45c1.15-9.46,4.78-18.54,10.51-26.27l4.4-5.93c-3.72,2.97-9.2,8.56-14.94,18.63
		c-9.41,16.53-0.74,49.88,1.09,56.4l0.06,0.21l-0.03,0.22c-0.77,6.6-0.78,13.02-0.04,19.08l0.01,0.07l0,0.07
		c0,0.42,0.18,10.44,14.48,12.49c8.61,1.24,20.52-2.68,33.53-11.02l0.33-0.21l0.39,0.04c2.36,0.24,10.9,0.73,21.78-2.99
		c12.41-4.24,28.94-12.66,30.78-13.61l0.35-0.18l0.39,0.08c4.07,0.88,8.52,1.17,13.21,0.86c8.78-0.58,12.19-3.85,15.49-7.01
		c5.08-4.87,9.89-9.48,30.68-4.67c-1.22-4.02-6.3-14.02-26.54-13.32c-24.65,0.86-32.26,4.48-32.75,4.73l-16.38,10.62
		c1.25,1.41,4.17,4.22,9.13,6.46l1.88,0.85l-1.74,1.1c-5.52,3.51-24.47,14.72-36.28,11.79l-2.17-0.54l1.74-1.4
		c1.02-0.82,1.97-1.61,2.84-2.36c10.32-8.91,4.34-19.28,4.08-19.72c-0.39-0.69-9.15-16.44-10.03-25.65l-1.26-13.1
		c-3.2,1.05-11.23,3.68-13.76,4.43c-3,0.88-7.06,0.77-11.36,0.64c-6.81-0.2-13.86-0.4-16.1,3.46c-1.08,1.86-6.63,11.86-10.2,25.81
		L148.83,111.25z"/>
	<path class="st1" d="M205.5,135.23"/>
	<path class="st0" d="M197.55,80.14c-18.06,2.68-34.63,7.33-39.54,57.6C158,137.74,170.42,94.13,197.55,80.14z"/>
	<path class="st0" d="M191.31,119.01c-6.65-3.53-15.99,11.92-15.99,11.92s11.4-1,16.89-3.23
		C197.69,125.47,193.24,120.03,191.31,119.01z"/>
	<path class="st0" d="M156.87,105.06c3.74,2.97-2.87,12.32-2.87,12.32s-2.31-6.88-2.41-10.63
		C151.5,102.99,155.79,104.2,156.87,105.06z"/>
	<g>
		<path class="st0" d="M334.73,255.63c0,0-8.08-6.64-18.65-3.88s-18.8,8.11-18.8,8.11s1.58-11.71-0.4-18.5s-8.5-27.52-21.95-31.23
			c0,0-38.29,26.9-83.23,31.26s-76.14-3.34-98.82-24.3s-10.95-55.46-9.2-64.37c1.75-8.91-7.55-21.7-16.61-22.51
			c0,0,7.48,15.76,3.37,23.21c-4.11,7.44-11.45,24.88-9.58,32c0,0-6.1-8.43-7.96-21.13c-1.87-12.71-10.16-30.23-27.67-27.24
			c0,0,12.98,14.65,11.33,21.05c-1.64,6.4-6.92,31.99,1.95,44.45c8.87,12.46,39.52,20.06,46.63,26.69
			c7.11,6.63,20.51,27.66,28.17,33.97s19.72,19.28,56.72,30.63s87.13,6.5,107.9-1.9S324.6,268.98,334.73,255.63z"/>
		<path class="st0" d="M336.26,258.54c0,0-24.53,27.18-44.43,34.28c-19.9,7.1-17.4,20.13-17.4,20.13s12.54-12.43,26.97-12.61
			C315.82,300.14,342.08,298.76,336.26,258.54z"/>
		<path class="st0" d="M223.17,222.65c26.17-0.91,33.27-4.88,33.27-4.88l17.46-11.32c0,0-3.04-4.45-10.31-7.73
			c5.36-3.4,24.01-14.48,35.41-11.65c-1.01,0.81-1.97,1.61-2.86,2.38c-11.18,9.65-4.31,21.13-4.31,21.13s9.01,16.1,9.88,25.18
			c0.41,4.22,1.39,14.48,1.39,14.48s11.9-3.93,15.05-4.85c7.64-2.25,24.03,2.43,28.1-4.61c2.3-3.97,7.13-13.62,10.31-26.09
			c1.41,3.33,2.32,8.75,2.23,17.34c-0.05,4.33-0.39,8.54-0.85,12.33c-1.13,9.33-4.71,18.2-10.3,25.75l-7.93,10.7
			c0,0,9.7-3.53,20.33-22.19c9.69-17.01,0.68-51.32-0.99-57.25c0.72-6.17,0.85-12.7,0.04-19.34c0,0,0.08-11.37-15.43-13.6
			c-10.53-1.51-23.53,4.28-34.29,11.18c-2.72-0.28-11.28-0.7-22.25,3.05c-12.37,4.23-28.57,12.46-30.93,13.67
			c-3.8-0.82-8.28-1.23-13.52-0.89c-22.7,1.49-11.16,20.25-47.56,11.29C195.12,206.73,197,223.56,223.17,222.65z"/>
	</g>
	<path class="st1" d="M299.65,187.25"/>
	<path d="M295.61,261.86c0,0-26.75,42.5-91.16,46.22s-89.39-33.81-90.6-36.27c0,0,14.25,11.38,26.07,16.51
		c11.81,5.14,42.11,12.11,56.41,11.59C210.63,299.4,264.62,290.71,295.61,261.86z"/>
	<path class="st0" d="M195.61,308.34c-57.88,0-80.61-34.19-81.76-36.53c0,0,14.25,11.38,26.07,16.51c11.4,4.96,40,11.62,54.84,11.62
		c0.54,0,1.06-0.01,1.56-0.03c14.3-0.51,68.29-9.2,99.28-38.05c0,0-26.75,42.5-91.16,46.22
		C201.42,308.25,198.47,308.34,195.61,308.34 M195.61,310.56c2.93,0,5.95-0.09,8.96-0.26c14.92-0.86,29.09-3.87,42.09-8.94
		c10.42-4.06,20.13-9.45,28.84-16.01c14.89-11.21,21.69-21.86,21.97-22.31l5.22,0.97l-8.61-3.77
		c-16.33,15.2-38.94,24.24-55.03,29.15c-19.9,6.07-36.7,8.09-42.81,8.31c-0.47,0.02-0.97,0.03-1.48,0.03
		c-14.25,0-42.48-6.44-53.96-11.44c-11.41-4.96-25.43-16.1-25.57-16.21l-7.73-6.17c0,0,2.64,5.95,4.36,8.88
		c1.04,1.78,7.38,11.23,20.36,20.01c7.69,5.2,16.33,9.34,25.7,12.29C169.46,308.71,182.14,310.56,195.61,310.56L195.61,310.56z"/>
	<path d="M307.6,242.34c18.06-2.68,34.63-7.33,39.54-57.6C347.14,184.74,334.73,228.34,307.6,242.34z"/>
	<path d="M313.84,203.47c6.65,3.53,15.99-11.92,15.99-11.92s-11.4,1-16.89,3.23C307.46,197.01,311.91,202.45,313.84,203.47z"/>
	<path d="M348.27,217.42c-3.74-2.97,2.87-12.32,2.87-12.32s2.31,6.88,2.41,10.63S349.35,218.28,348.27,217.42z"/>
</g>
<path class="st0" d="M581.36,120.91c-0.68,0-1.24-0.55-1.24-1.24V70.3h-20.21v49.37c0,0.68-0.55,1.24-1.24,1.24h-16.43
	c-0.68,0-1.24-0.55-1.24-1.24V10.45c0-0.68,0.55-1.24,1.24-1.24h16.43c0.68,0,1.24,0.55,1.24,1.24v44.14h20.21V10.45
	c0-0.68,0.55-1.24,1.24-1.24h16.43c0.68,0,1.24,0.55,1.24,1.24v109.23c0,0.68-0.55,1.24-1.24,1.24H581.36z"/>
<path class="st0" d="M647.03,120.91c-0.62,0-1.14-0.45-1.23-1.06l-2.05-14.39h-19.12l-2.05,14.39c-0.09,0.61-0.61,1.06-1.23,1.06
	h-17.62c-0.36,0-0.71-0.16-0.95-0.44c-0.23-0.28-0.34-0.65-0.28-1l18.3-109.23c0.1-0.6,0.62-1.03,1.22-1.03h24.33
	c0.6,0,1.12,0.44,1.22,1.03l18.29,109.23c0.06,0.36-0.04,0.73-0.28,1c-0.24,0.28-0.58,0.44-0.95,0.44H647.03z M641.2,87.56
	l-7.01-48.99l-7,48.99H641.2z"/>
<path class="st0" d="M674.5,120.91c-0.68,0-1.24-0.55-1.24-1.24V24.06h-17.39c-0.68,0-1.24-0.55-1.24-1.24V10.36
	c0-0.68,0.55-1.24,1.24-1.24h53.7c0.68,0,1.24,0.55,1.24,1.24v12.46c0,0.68-0.55,1.24-1.24,1.24h-17.39v95.61
	c0,0.68-0.55,1.24-1.24,1.24H674.5z"/>
<path class="st0" d="M725.85,120.91c-0.68,0-1.24-0.55-1.24-1.24V24.06h-17.4c-0.68,0-1.24-0.55-1.24-1.24V10.36
	c0-0.68,0.55-1.24,1.24-1.24h53.7c0.68,0,1.24,0.55,1.24,1.24v12.46c0,0.68-0.55,1.24-1.24,1.24h-17.39v95.61
	c0,0.68-0.55,1.24-1.24,1.24H725.85z"/>
<path class="st0" d="M795.46,120.91c-0.62,0-1.14-0.45-1.23-1.06l-2.05-14.39h-19.12l-2.05,14.39c-0.09,0.61-0.61,1.06-1.23,1.06
	h-17.62c-0.36,0-0.71-0.16-0.95-0.44c-0.23-0.28-0.34-0.65-0.28-1l18.3-109.23c0.1-0.6,0.62-1.03,1.22-1.03h24.33
	c0.6,0,1.12,0.44,1.22,1.03l18.29,109.23c0.06,0.36-0.04,0.73-0.28,1c-0.24,0.28-0.58,0.44-0.95,0.44H795.46z M789.63,87.56
	l-7.01-48.99l-7,48.99H789.63z"/>
<path class="st0" d="M822.93,120.91c-0.68,0-1.24-0.55-1.24-1.24V24.06h-17.4c-0.68,0-1.24-0.55-1.24-1.24V10.36
	c0-0.68,0.55-1.24,1.24-1.24h53.7c0.68,0,1.24,0.55,1.24,1.24v12.46c0,0.68-0.55,1.24-1.24,1.24H840.6v95.61
	c0,0.68-0.55,1.24-1.24,1.24H822.93z"/>
<path class="st0" d="M883.11,121.79c-15.55,0-24.46-8.92-24.46-24.46l-0.02-10.3c0-0.33,0.13-0.64,0.36-0.88
	c0.23-0.23,0.55-0.36,0.88-0.36h14.96c0.68,0,1.24,0.55,1.24,1.24v10.31c0,5.71,3.02,8.73,8.73,8.73c5.71,0,8.73-3.02,8.73-8.73
	c0.01-0.18,0.56-10.26-7.7-18.52c-1.2-1.2-2.59-2.49-4.07-3.86c-9.21-8.54-23.13-21.44-23.13-43.39c0-14.78,8.47-23.25,23.25-23.25
	h5.29c14.77,0,23.25,8.47,23.25,23.25v11.92c0,0.68-0.55,1.24-1.24,1.24h-14.03c-0.68,0-1.24-0.55-1.24-1.24v-12
	c0-5.44-2.88-8.31-8.32-8.31c-0.04,0-0.07,0-0.11,0c-5.37,0.04-8.2,2.91-8.2,8.32c0,13.52,5.62,19.12,19.2,32.65l2.69,2.68
	c15.28,15.28,14.13,29.26,13.98,30.61c-0.03,15.5-8.94,24.39-24.46,24.39H883.11z"/>
<path class="st0" d="M945.77,121.81c-17.59,0-27.68-10.09-27.68-27.69V10.45c0-0.68,0.55-1.24,1.24-1.24h16.66
	c0.68,0,1.24,0.55,1.24,1.24v86.2c0,5.59,2.96,8.55,8.55,8.55c5.59,0,8.55-2.96,8.55-8.55v-86.2c0-0.68,0.55-1.24,1.24-1.24h16.66
	c0.68,0,1.24,0.55,1.24,1.24v83.68C973.46,111.72,963.37,121.81,945.77,121.81z"/>
<g>
	<path class="st0" d="M591.64,207.4v-19.87c0-8.92-4.97-13.89-13.89-13.89c-8.92,0-13.89,4.97-13.89,13.89v91.37
		c0,8.92,4.97,13.89,13.89,13.89c8.92,0,13.89-4.97,13.89-13.89v-28.18h-14.55v-18.87h37.61v79.8h-9.68l-7.35-6.11
		c-5.56,4.78-13.25,7.39-23.04,7.39c-21.3,0-33.16-11.87-33.16-33.16v-91.91c0-21.3,11.87-33.16,33.16-33.16h6.92
		c21.3,0,33.16,11.87,33.16,33.16v19.53H591.64z"/>
	<path class="st0" d="M673.3,156c20.15,0,31.37,11.23,31.37,31.37v36.69c0,11.43-3.73,19.87-10.55,25.14
		c5.99,3.39,9.25,9.71,9.25,18.62v43.83h-21.52v-43.83c0-7.96-4.44-12.4-12.4-12.4H652.5v56.23h-23.42V156.01L673.3,156L673.3,156z
		 M683.15,193.13c0-12.52-6.98-19.49-19.5-19.49H652.5v63.63h11.15c12.53,0,19.5-6.97,19.5-19.49V193.13z"/>
	<path class="st0" d="M792.75,192.38v82.87c0,24.2-13.49,37.69-37.69,37.69c-24.2,0-37.68-13.49-37.68-37.69v-82.87
		c0-24.2,13.48-37.69,37.68-37.69C779.27,154.69,792.75,168.17,792.75,192.38z M769.02,187.59c0-8.96-4.99-13.95-13.95-13.95
		c-8.96,0-13.95,4.99-13.95,13.95v91.24c0,8.96,4.99,13.95,13.95,13.95c8.96,0,13.95-5,13.95-13.95V187.59z"/>
	<path class="st0" d="M881.71,156.01v119.24c0,24.2-13.49,37.69-37.69,37.69c-24.2,0-37.68-13.49-37.68-37.69V156.01h23.74v122.83
		c0,8.96,4.99,13.95,13.95,13.95c8.96,0,13.95-4.99,13.95-13.95V156.01H881.71z"/>
	<path class="st0" d="M940.85,155.99c20.15,0,31.37,11.23,31.37,31.37v36.7c0,20.15-11.23,31.37-31.37,31.37h-20.8v56.23h-23.42
		V156.01h44.21V155.99z M950.7,193.13c0-12.52-6.98-19.49-19.5-19.49h-11.15v63.63h11.15c12.53,0,19.5-6.97,19.5-19.49V193.13z"/>
</g>
</svg>
