<?xml version="1.0" encoding="utf-8"?>
<!-- Generator: Adobe Illustrator 25.3.1, SVG Export Plug-In . SVG Version: 6.00 Build 0)  -->
<svg version="1.1" id="Layer_1" xmlns="http://www.w3.org/2000/svg" xmlns:xlink="http://www.w3.org/1999/xlink" x="0px" y="0px"
	 viewBox="0 0 1000 320" style="enable-background:new 0 0 1000 320;" xml:space="preserve">
<style type="text/css">
	.st0{fill:#110F56;}
	.st1{fill:#999999;}
	.st2{fill:#4F0303;}
</style>
<g>
	<g>
		<g>
			<g>
				<path class="st0" d="M580.06,13.84h15.93v105.87h-15.93V70.65h-21.99v49.05h-15.93V13.84h15.93v43.99h21.99V13.84z"/>
			</g>
			<g>
				<path class="st0" d="M643.06,13.84l17.73,105.87h-17.08l-2.14-14.97h-20.62l-2.14,14.97h-17.08l17.73-105.87H643.06z
					 M639.45,89.78l-7.98-55.8c-0.03-0.23-0.36-0.23-0.39,0l-7.98,55.8H639.45z"/>
			</g>
			<g>
				<path class="st0" d="M652.28,13.76h52.05v12.08h-18.06v93.87h-15.93V25.84h-18.06V13.76z"/>
			</g>
			<g>
				<path class="st0" d="M702.05,13.76h52.05v12.08h-18.06v93.87h-15.93V25.84h-18.06V13.76z"/>
			</g>
			<g>
				<path class="st0" d="M786.94,13.84l17.73,105.87h-17.07l-2.14-14.97h-20.62l-2.14,14.97h-17.07l17.73-105.87H786.94z
					 M783.32,89.78l-7.98-55.8c-0.03-0.23-0.36-0.23-0.39,0l-7.98,55.8H783.32z"/>
			</g>
			<g>
				<path class="st0" d="M796.15,13.76h52.05v12.08h-18.06v93.87h-15.93V25.84h-18.06V13.76z"/>
			</g>
			<g>
				<path class="st0" d="M874.95,24.95c-5.95,0-9.26,3.32-9.26,9.26c0,14.46,6.56,20.08,21.57,35.09
					c15.01,15.01,13.2,28.75,13.2,28.75c0,14.45-8.06,22.51-22.51,22.51h-5.41c-14.45,0-22.51-8.06-22.51-22.51l-0.02-9.99h14.5
					v9.99c0,6.2,3.46,9.66,9.66,9.66c6.2,0,9.66-3.46,9.66-9.66c0,0,0.71-10.27-7.82-18.8c-8.53-8.53-26.01-20.88-26.01-44.95
					c0-13.7,7.64-21.34,21.34-21.34h5.13c13.7,0,21.33,7.64,21.33,21.34v11.55h-13.6V34.22C884.21,28.27,880.89,24.96,874.95,24.95
					L874.95,24.95z"/>
			</g>
			<g>
				<path class="st0" d="M958.91,13.84v81.11c0,16.46-9.18,25.64-25.64,25.64s-25.63-9.17-25.63-25.64V13.84h16.15v83.55
					c0,6.1,3.39,9.49,9.49,9.49c6.1,0,9.49-3.4,9.49-9.49V13.84H958.91z"/>
			</g>
		</g>
		<g>
			<g>
				<g>
					<path class="st1" d="M590.02,204.74v-19.26c0-8.65-4.82-13.46-13.46-13.46c-8.65,0-13.46,4.82-13.46,13.46v88.56
						c0,8.65,4.82,13.46,13.46,13.46c8.65,0,13.46-4.82,13.46-13.46v-27.31h-14.1v-18.29h36.45v77.35h-9.38l-7.13-5.92
						c-5.39,4.64-12.85,7.17-22.34,7.17c-20.64,0-32.14-11.5-32.14-32.14v-89.09c0-20.64,11.5-32.14,32.14-32.14h6.71
						c20.64,0,32.14,11.5,32.14,32.14v18.93H590.02z"/>
				</g>
			</g>
			<g>
				<g>
					<path class="st1" d="M669.18,154.92c19.53,0,30.4,10.88,30.4,30.4v35.57c0,11.08-3.62,19.26-10.22,24.36
						c5.81,3.28,8.97,9.41,8.97,18.05v42.48h-20.86v-42.48c0-7.72-4.3-12.02-12.02-12.02h-16.44v54.5h-22.7V154.93L669.18,154.92
						L669.18,154.92z M678.72,190.92c0-12.13-6.77-18.89-18.9-18.89h-10.8v61.67h10.8c12.14,0,18.9-6.76,18.9-18.89V190.92z"/>
				</g>
			</g>
			<g>
				<g>
					<path class="st1" d="M784.96,190.18v80.32c0,23.46-13.07,36.53-36.53,36.53s-36.53-13.07-36.53-36.53v-80.32
						c0-23.45,13.06-36.53,36.53-36.53C771.89,153.66,784.96,166.72,784.96,190.18z M761.95,185.54c0-8.69-4.84-13.52-13.52-13.52
						c-8.69,0-13.52,4.83-13.52,13.52v88.44c0,8.69,4.83,13.52,13.52,13.52c8.68,0,13.52-4.84,13.52-13.52V185.54z"/>
				</g>
			</g>
			<g>
				<g>
					<path class="st1" d="M871.19,154.93v115.58c0,23.46-13.07,36.53-36.53,36.53c-23.46,0-36.53-13.07-36.53-36.53V154.93h23.01
						v119.06c0,8.69,4.83,13.52,13.52,13.52c8.69,0,13.52-4.84,13.52-13.52V154.93H871.19z"/>
				</g>
			</g>
			<g>
				<g>
					<path class="st1" d="M928.51,154.91c19.53,0,30.4,10.88,30.4,30.4v35.57c0,19.53-10.88,30.4-30.4,30.4h-20.16v54.5h-22.7
						V154.93h42.85V154.91z M938.06,190.92c0-12.13-6.77-18.89-18.9-18.89h-10.8v61.67h10.8c12.14,0,18.9-6.76,18.9-18.89V190.92z"
						/>
				</g>
			</g>
		</g>
	</g>
	<g>
		<g>
			<path class="st1" d="M341,251.5c0,0-7.83-6.43-18.08-3.76c-10.25,2.67-18.23,7.86-18.23,7.86s1.54-11.35-0.39-17.93
				c-1.92-6.58-8.24-26.67-21.27-30.27c0,0-37.11,26.08-80.67,30.3c-43.57,4.22-73.8-3.24-95.78-23.56s-10.62-53.76-8.92-62.4
				c1.7-8.64-7.31-21.03-16.1-21.81c0,0,7.26,15.28,3.27,22.49c-3.99,7.21-11.1,24.11-9.29,31.01c0,0-5.91-8.17-7.72-20.49
				s-9.85-29.3-26.82-26.4c0,0,12.58,14.2,10.99,20.4c-1.59,6.2-6.71,31.01,1.89,43.09s38.31,19.44,45.2,25.87
				s19.88,26.81,27.3,32.93c7.42,6.12,19.11,18.69,54.98,29.69c35.87,10.99,84.45,6.3,104.58-1.84
				C306.07,278.53,331.19,264.44,341,251.5z"/>
		</g>
		<path class="st0" d="M303.08,257.54c0,0-25.92,41.2-88.36,44.8s-86.64-32.77-87.82-35.16c0,0,13.82,11.03,25.27,16.01
			s40.82,11.74,54.68,11.24S273.05,285.5,303.08,257.54z"/>
		<g>
			<path class="st1" d="M282.05,203.82c0,0-8.26-12.12-30.26-10.68s-10.81,19.63-46.1,10.94c0,0,1.82,16.32,27.19,15.43
				s32.25-4.73,32.25-4.73L282.05,203.82z"/>
		</g>
		<g>
			<path class="st1" d="M342.49,254.31c0,0-23.78,26.34-43.06,33.22c-19.29,6.88-16.87,19.51-16.87,19.51s12.16-12.05,26.14-12.23
				C322.68,294.63,348.13,293.3,342.49,254.31z"/>
		</g>
		<g>
			<g>
				<path class="st1" d="M364.62,180.15c0,0,0.07-11.02-14.95-13.18c-15.03-2.16-35.23,11.03-46.06,20.39
					c-10.84,9.36-4.18,20.48-4.18,20.48s8.73,15.61,9.58,24.41c0.39,4.09,1.35,14.03,1.35,14.03s11.54-3.81,14.59-4.71
					c7.41-2.19,23.29,2.36,27.24-4.47C356.13,230.27,367.8,206.12,364.62,180.15z"/>
			</g>
			<g>
				<path class="st1" d="M364.34,198.04c0,0,11.51,38.27,1.21,56.35c-10.3,18.09-19.7,21.51-19.7,21.51l7.69-10.37
					c5.42-7.32,8.89-15.91,9.99-24.96c0.45-3.67,0.78-7.75,0.82-11.95c0.35-32.35-14.03-18.45-14.03-18.45L364.34,198.04z"/>
			</g>
			<g>
				<path class="st1" d="M317.32,177.92c0,0-9.5-1.59-22.46,2.84c-12.96,4.43-30.27,13.4-30.27,13.4l6.02,3.11
					c0,0,23.48-15.96,36.39-12.06C312.36,186.83,317.32,177.92,317.32,177.92z"/>
			</g>
		</g>
		<path class="st2" d="M307,185.21"/>
		<path class="st0" d="M314.71,238.61c17.5-2.6,33.57-7.11,38.33-55.83C353.03,182.78,341,225.04,314.71,238.61z"/>
		<path class="st0" d="M320.75,200.93c6.44,3.42,15.5-11.55,15.5-11.55s-11.05,0.97-16.37,3.13
			C314.57,194.67,318.88,199.94,320.75,200.93z"/>
		<path class="st0" d="M354.13,214.45c-3.62-2.88,2.78-11.94,2.78-11.94s2.24,6.67,2.33,10.31
			C359.34,216.46,355.18,215.29,354.13,214.45z"/>
		<path class="st0" d="M181.74,68.5c0,0,7.83,6.43,18.08,3.76c10.25-2.67,18.23-7.86,18.23-7.86s-1.54,11.35,0.39,17.93
			c1.92,6.58,8.24,26.67,21.27,30.27c0,0,37.11-26.08,80.67-30.3c43.57-4.22,73.8,3.24,95.78,23.56
			c21.99,20.32,10.62,53.76,8.92,62.4c-1.7,8.64,7.31,21.03,16.1,21.81c0,0-7.26-15.28-3.27-22.49s11.1-24.11,9.29-31.01
			c0,0,5.91,8.17,7.72,20.49c1.81,12.32,9.85,29.3,26.82,26.4c0,0-12.58-14.2-10.99-20.4c1.59-6.2,6.71-31.01-1.89-43.09
			c-8.6-12.08-38.31-19.44-45.2-25.87c-6.89-6.43-19.88-26.81-27.3-32.93s-19.11-18.69-54.98-29.69s-84.45-6.3-104.58,1.84
			S191.56,55.56,181.74,68.5z"/>
		<g>
			<path class="st1" d="M219.66,62.46c0,0,25.92-41.2,88.36-44.8s86.64,32.77,87.82,35.16c0,0-13.82-11.03-25.27-16.01
				s-40.82-11.74-54.68-11.24C302.03,26.08,249.7,34.5,219.66,62.46z"/>
		</g>
		<path class="st0" d="M240.69,116.18c0,0,8.26,12.12,30.26,10.68c22-1.44,10.81-19.63,46.1-10.94c0,0-1.82-16.32-27.19-15.43
			c-25.37,0.89-32.25,4.73-32.25,4.73L240.69,116.18z"/>
		<path class="st0" d="M180.25,65.69c0,0,23.78-26.34,43.06-33.22s16.87-19.51,16.87-19.51s-12.16,12.05-26.14,12.23
			S174.62,26.7,180.25,65.69z"/>
		<g>
			<path class="st0" d="M158.12,139.85c0,0-0.07,11.02,14.95,13.18c15.03,2.16,35.23-11.03,46.06-20.39
				c10.84-9.36,4.18-20.48,4.18-20.48s-8.73-15.61-9.58-24.41c-0.39-4.09-1.35-14.03-1.35-14.03s-11.54,3.81-14.59,4.71
				c-7.41,2.19-23.29-2.36-27.24,4.47C166.61,89.73,154.94,113.88,158.12,139.85z"/>
			<path class="st0" d="M158.4,121.96c0,0-11.51-38.27-1.21-56.35c10.3-18.09,19.7-21.51,19.7-21.51l-7.69,10.37
				c-5.42,7.32-8.89,15.91-9.99,24.96c-0.45,3.67-0.78,7.75-0.82,11.95c-0.35,32.35,14.03,18.45,14.03,18.45L158.4,121.96z"/>
			<path class="st0" d="M205.42,142.08c0,0,9.5,1.59,22.46-2.84c12.96-4.43,30.27-13.4,30.27-13.4l-6.02-3.11
				c0,0-23.48,15.96-36.39,12.06C210.38,133.17,205.42,142.08,205.42,142.08z"/>
		</g>
		<path class="st2" d="M215.74,134.79"/>
		<g>
			<path class="st1" d="M208.04,81.39c-17.5,2.6-33.57,7.11-38.33,55.83C169.71,137.22,181.74,94.96,208.04,81.39z"/>
		</g>
		<g>
			<path class="st1" d="M201.99,119.07c-6.44-3.42-15.5,11.55-15.5,11.55s11.05-0.97,16.37-3.13
				C208.17,125.33,203.86,120.06,201.99,119.07z"/>
		</g>
		<g>
			<path class="st1" d="M168.61,105.55c3.62,2.88-2.78,11.94-2.78,11.94s-2.24-6.67-2.33-10.31
				C163.4,103.54,167.56,104.71,168.61,105.55z"/>
		</g>
	</g>
</g>
</svg>
