<svg width="282" height="281" xmlns="http://www.w3.org/2000/svg" xmlns:xlink="http://www.w3.org/1999/xlink" xml:space="preserve" overflow="hidden"><defs><clipPath id="clip0"><rect x="69" y="177" width="282" height="281"/></clipPath></defs><g clip-path="url(#clip0)" transform="translate(-69 -177)"><path d="M278.233 5.63892C276.266 3.65395 273.527 2.62929 270.745 2.83271L226.885 6.04008C221.621 6.42515 217.665 11.0044 218.049 16.2696 218.434 21.5348 223.016 25.4726 228.279 25.1046L246.503 23.7715 182.299 88.059 107.631 24.8264C103.836 21.6115 98.2109 21.8451 94.6951 25.361L2.79959 117.257C-0.932882 120.99-0.932882 127.042 2.79959 130.775 4.6663 132.641 7.11204 133.574 9.55873 133.574 12.0054 133.574 14.4502 132.641 16.3169 130.775L101.991 45.1 176.664 108.336C180.46 111.553 186.088 111.317 189.603 107.797L259.767 37.5424 258.318 55.0448C257.881 60.3052 261.794 64.9224 267.054 65.3585 267.323 65.3812 267.589 65.3916 267.854 65.3916 272.775 65.3907 276.955 61.6137 277.369 56.622L280.968 13.1531C281.198 10.3696 280.2 7.62485 278.233 5.63892Z" fill="#FFFFFF" transform="matrix(1.00356 0 0 1 69 177)"/><path d="M85.2528 115.185C81.6821 113.708 77.5702 114.525 74.8359 117.257L35.1212 156.973C33.3293 158.766 32.3216 161.197 32.3216 163.732L32.3216 268.636C32.3216 273.914 36.601 278.194 41.8794 278.194L81.5941 278.194C86.8725 278.194 91.1519 273.914 91.1519 268.636L91.1519 124.016C91.1528 120.15 88.8234 116.665 85.2528 115.185Z" fill="#FFFFFF" transform="matrix(1.00356 0 0 1 69 177)"/><path d="M128.071 117.257C125.337 114.524 121.227 113.708 117.654 115.185 114.083 116.665 111.754 120.15 111.754 124.017L111.754 268.636C111.754 273.914 116.033 278.194 121.312 278.194L161.027 278.194C166.306 278.194 170.585 273.914 170.585 268.636L170.585 163.732C170.585 161.198 169.578 158.767 167.785 156.974L128.071 117.257Z" fill="#FFFFFF" transform="matrix(1.00356 0 0 1 69 177)"/><path d="M244.116 115.185C240.544 113.708 236.433 114.525 233.699 117.257L193.984 156.974C192.192 158.767 191.184 161.198 191.184 163.732L191.184 268.635C191.184 273.914 195.463 278.193 200.742 278.193L240.457 278.193C245.736 278.193 250.015 273.914 250.015 268.635L250.015 124.016C250.016 120.15 247.688 116.665 244.116 115.185Z" fill="#FFFFFF" transform="matrix(1.00356 0 0 1 69 177)"/></g></svg>