<svg width="375" height="375" xmlns="http://www.w3.org/2000/svg" xmlns:xlink="http://www.w3.org/1999/xlink" xml:space="preserve" overflow="hidden"><g transform="translate(-70 105)"><path d="M164.5 142.5 97 142.5C89.5 142.5 82 148.5 82 157.5L82 249C82 256.5 88 264 97 264L164.5 264C172 264 179.5 258 179.5 249L179.5 157.5C179.5 148.5 173.5 142.5 164.5 142.5Z" fill="#FFFFFF"/><path d="M292 99 224.5 99C217 99 209.5 105 209.5 114L209.5 249C209.5 256.5 215.5 264 224.5 264L292 264C299.5 264 307 258 307 249L307 114C305.5 105 299.5 99 292 99Z" fill="#FFFFFF"/><path d="M350.5 262.5 418 262.5C425.5 262.5 433 256.5 433 247.5L433 171C433 163.5 427 156 418 156L350.5 156C343 156 335.5 162 335.5 171L335.5 247.5C335.5 256.5 341.5 262.5 350.5 262.5Z" fill="#FFFFFF"/><path d="M338.5-19.5C347.5-28.5 343-45 329.5-46.5L298-51C293.5-52.5 289-55.5 286-60L271-88.5C265-100.5 248.5-100.5 242.5-88.5L227.5-60C224.5-55.5 220-52.5 215.5-51L185.5-46.5C172-45 166-28.5 176.5-19.5L199 3C203.5 7.5 205 12 203.5 18L197.5 49.5C196 63 209.5 72 220 66L248.5 51C253 48 259 48 263.5 51L292 66C304 72 317.5 61.5 314.5 49.5L308.5 18C307 13.5 310 7.5 313 4.5Z" fill="#FFFFFF"/></g></svg>